<?xml version="1.0" standalone="no"?>
<!DOCTYPE svg PUBLIC "-//W3C//DTD SVG 20010904//EN"
 "http://www.w3.org/TR/2001/REC-SVG-20010904/DTD/svg10.dtd">
<svg version="1.0" xmlns="http://www.w3.org/2000/svg"
 width="559.000000pt" height="897.000000pt" viewBox="0 0 559.000000 897.000000"
 preserveAspectRatio="xMidYMid meet">
<metadata>
Created by potrace 1.16, written by Peter Selinger 2001-2019
</metadata>
<g transform="translate(0.000000,897.000000) scale(0.100000,-0.100000)"
fill="#000000" stroke="none">
<path d="M3140 8961 c-25 -5 -65 -12 -90 -16 -25 -4 -84 -20 -132 -36 -358
-118 -638 -412 -738 -774 -27 -99 -30 -125 -37 -261 -15 -323 97 -614 325
-844 144 -145 321 -247 523 -300 106 -28 334 -38 447 -20 380 61 691 290 856
631 177 367 145 780 -90 1129 -69 103 -196 230 -293 294 -140 91 -254 141
-400 175 -102 24 -296 35 -371 22z"/>
<path d="M2915 6080 c-49 -4 -429 -8 -844 -9 -415 0 -756 -2 -757 -4 -8 -8
-32 -272 -25 -277 5 -3 151 -5 325 -5 278 1 316 -1 316 -15 0 -8 -9 -60 -19
-115 -10 -55 -22 -116 -25 -135 -3 -19 -21 -118 -40 -220 -33 -175 -110 -596
-120 -650 -2 -14 -29 -160 -60 -325 -30 -165 -57 -313 -60 -330 -3 -16 -10
-55 -16 -85 -23 -119 -163 -886 -196 -1070 -19 -107 -36 -204 -38 -215 -2 -11
-13 -69 -25 -130 -11 -60 -22 -121 -25 -135 -2 -14 -7 -43 -11 -65 -30 -164
-54 -301 -60 -345 -4 -24 -8 -47 -10 -50 -1 -3 -6 -39 -10 -80 -4 -41 -8 -77
-10 -80 -4 -6 -13 -93 -24 -220 -13 -144 -6 -392 13 -490 110 -561 519 -921
1153 -1015 160 -23 487 -21 616 6 293 59 554 197 759 402 98 98 126 134 112
146 -5 5 -58 47 -118 95 l-108 86 -27 -33 c-164 -207 -417 -348 -717 -400
l-30 -6 13 72 c18 103 1052 5638 1058 5663 4 17 -1 23 -23 28 -38 10 -857 15
-967 6z"/>
</g>
</svg>
