<svg width="562" height="1196" viewBox="0 0 562 1196" fill="none" xmlns="http://www.w3.org/2000/svg">
<path fill-rule="evenodd" clip-rule="evenodd" d="M0.0247764 286.162L0 286.17V286.156V279.825V96.4172L274.385 2.06324L280.373 0.00418719V0L280.379 0.00209359L280.385 0V0.00418718L286.373 2.06324L560.758 96.4172V279.825V285.73L562 286.156L550.917 288.7L281.615 350.522L11.0789 288.688L0.0247764 286.162ZM6 100.699L274.385 8.40808V185.384L6 277.76V100.699ZM6 524.567V1095.21L274.385 1187.59V432.192L6 524.567ZM274.385 425.846L0 520.287V1099.49L274.385 1193.94L280.373 1196V1196L280.379 1196L280.385 1196V1196L286.373 1193.94L560.758 1099.49V520.287L286.373 425.846L280.385 423.785V423.781L280.379 423.783L280.373 423.781V423.785L274.385 425.846ZM286.373 432.192L554.758 524.567V1095.21L286.373 1187.59V432.192ZM286.373 185.384L554.758 277.76V100.699L286.373 8.40808V185.384ZM280.389 195.994L540.159 285.014L281.612 344.367L21.8248 284.99L280.389 195.994Z" fill="black"/>
</svg>
